{
    "accessors": [
        {
            "bufferView": 0,
            "byteOffset": 0,
            "componentType": 5126,
            "count": 5277,
            "max": [
                2.3357279300689697,
                0.8948616981506348,
                0.9430066347122192
            ],
            "min": [
                0.4831729829311371,
                -1.8367505073547363,
                -1.2150763273239136
            ],
            "name": "accessor_buffer_Creepy_Doll_Head_0",
            "type": "VEC3"
        },
        {
            "bufferView": 0,
            "byteOffset": 12,
            "componentType": 5126,
            "count": 5277,
            "max": [
                0.9994390606880188,
                0.9748319387435913,
                0.9992958903312683
            ],
            "min": [
                -0.9985886216163635,
                -0.9984928369522095,
                -0.9975287318229675
            ],
            "name": "accessor_buffer_Creepy_Doll_Head_1",
            "type": "VEC3"
        },
        {
            "bufferView": 0,
            "byteOffset": 24,
            "componentType": 5126,
            "count": 5277,
            "max": [
                0.9929208755493164,
                0.9964209999889135
            ],
            "min": [
                0.00992102175951004,
                0.0071457624435424805
            ],
            "name": "accessor_buffer_Creepy_Doll_Head_2",
            "type": "VEC2"
        },
        {
            "bufferView": 1,
            "byteOffset": 0,
            "componentType": 5123,
            "count": 5277,
            "max": [
                5276
            ],
            "min": [
                0
            ],
            "name": "accessor_buffer_Creepy_Doll_Head_3",
            "type": "SCALAR"
        }
    ],
    "asset": {
        "version": "2.0"
    },
    "bufferViews": [
        {
            "buffer": 0,
            "byteLength": 168864,
            "byteOffset": 0,
            "byteStride": 32,
            "name": "bufferView_buffer_Creepy_Doll_Head_0",
            "target": 34962
        },
        {
            "buffer": 0,
            "byteLength": 10554,
            "byteOffset": 168864,
            "name": "bufferView_buffer_Creepy_Doll_Head_1",
            "target": 34963
        }
    ],
    "buffers": [
        {
            "byteLength": 179418,
            "name": "buffer_combined",
            "uri": "buffer_combined.bin"
        }
    ],
    "cameras": [
        {
            "name": "Camera",
            "perspective": {
                "aspectRatio": 1.703595982340029,
                "yfov": 0.5033799409866333,
                "zfar": 100.0,
                "znear": 0.10000000149011612
            },
            "type": "perspective"
        }
    ],
    "images": [
        {
            "name": "Creepy_Doll_Head2.jpg",
            "uri": "Creepy_Doll_Head2.jpg"
        }
    ],
    "materials": [
        {
            "emissiveFactor": [
                0.0,
                0.0,
                0.0
            ],
            "name": "Creepy_Doll_Head",
            "pbrMetallicRoughness": {
                "baseColorFactor": [
                    1.0,
                    1.0,
                    1.0,
                    1.0
                ],
                "baseColorTexture": {
                    "index": 0,
                    "texCoord": 0
                },
                "metallicFactor": 0.0,
                "roughnessFactor": 1.0
            }
        }
    ],
    "meshes": [
        {
            "name": "Creepy_Doll_Head",
            "primitives": [
                {
                    "attributes": {
                        "NORMAL": 1,
                        "POSITION": 0,
                        "TEXCOORD_0": 2
                    },
                    "indices": 3,
                    "material": 0,
                    "mode": 4
                }
            ]
        }
    ],
    "nodes": [
        {
            "camera": 0,
            "name": "Camera",
            "rotation": [
                0.3857799172401428,
                0.20997314155101776,
                -0.8937963247299194,
                0.090628482401371
            ],
            "scale": [
                1.0,
                1.0,
                1.0
            ],
            "translation": [
                -6.876477241516113,
                -5.518806457519531,
                6.32670783996582
            ]
        },
        {
            "mesh": 0,
            "name": "Creepy_Doll_Head",
            "rotation": [
                -5.338508657359853e-08,
                -0.7071068286895752,
                0.7071068286895752,
                -5.338508657359853e-08
            ],
            "scale": [
                1.0,
                1.0,
                1.0
            ],
            "translation": [
                1.3857169151306152,
                -0.1751422882080078,
                -0.18093252182006836
            ]
        },
        {
            "name": "Sun",
            "rotation": [
                0.0,
                0.0,
                0.0,
                1.0
            ],
            "scale": [
                1.0,
                1.0,
                1.0
            ],
            "translation": [
                0.0027854442596435547,
                0.08635267615318298,
                -0.04986432194709778
            ]
        },
        {
            "children": [
                2,
                1,
                0
            ],
            "matrix": [
                0.0,
                1.0,
                0.0,
                0.0,
                -1.0,
                0.0,
                0.0,
                0.0,
                0.0,
                0.0,
                1.0,
                0.0,
                0.0,
                0.0,
                0.0,
                1.0
            ],
            "name": "Scene_root"
        }
    ],
    "samplers": [
        {
            "name": "default"
        }
    ],
    "scene": 0,
    "scenes": [
        {
            "extras": {
                "active_camera": 0,
                "background_color": [
                    0.05087608844041824,
                    0.05087608844041824,
                    0.05087608844041824
                ],
                "frames_per_second": 24
            },
            "name": "Scene",
            "nodes": [
                3
            ]
        }
    ],
    "textures": [
        {
            "name": "Kd",
            "sampler": 0,
            "source": 0
        }
    ]
}
