{
  "accessors": [
    {
      "bufferView": 2,
      "componentType": 5126,
      "count": 7200,
      "max": [
        9.194366455078125,
        31.15125846862793,
        90.596488952636719
      ],
      "min": [
        -7.050450325012207,
        -33.45458984375,
        0.018097249791026115
      ],
      "type": "VEC3"
    },
    {
      "bufferView": 2,
      "byteOffset": 86400,
      "componentType": 5126,
      "count": 7200,
      "max": [
        0.99925416707992554,
        0.99960058927536011,
        0.99958258867263794
      ],
      "min": [
        -0.99990952014923096,
        -0.99955254793167114,
        -0.99894273281097412
      ],
      "type": "VEC3"
    },
    {
      "bufferView": 3,
      "componentType": 5126,
      "count": 7200,
      "max": [
        0.99993538856506348,
        0.99999690055847168,
        0.99871724843978882,
        1
      ],
      "min": [
        -0.9989657998085022,
        -0.99999696016311646,
        -0.99955707788467407,
        -1
      ],
      "type": "VEC4"
    },
    {
      "bufferView": 3,
      "byteOffset": 115200,
      "componentType": 5126,
      "count": 7200,
      "max": [
        1,
        1,
        1,
        1
      ],
      "min": [
        1,
        1,
        1,
        1
      ],
      "type": "VEC4"
    },
    {
      "bufferView": 1,
      "componentType": 5126,
      "count": 7200,
      "max": [
        0.9951171875,
        0.99423980712890625
      ],
      "min": [
        0.004482269287109375,
        0.005859375
      ],
      "type": "VEC2"
    },
    {
      "bufferView": 1,
      "byteOffset": 57600,
      "componentType": 5126,
      "count": 7200,
      "max": [
        0.9951171875,
        0.99423980712890625
      ],
      "min": [
        0.004482269287109375,
        0.005859375
      ],
      "type": "VEC2"
    },
    {
      "bufferView": 0,
      "componentType": 5125,
      "count": 9405,
      "max": [
        7199
      ],
      "min": [
        0
      ],
      "type": "SCALAR"
    },
    {
      "bufferView": 4,
      "componentType": 5126,
      "count": 1,
      "max": [
        1,
        0,
        0,
        0,
        0,
        1,
        0,
        0,
        0,
        0,
        1,
        0,
        0,
        0,
        0,
        1
      ],
      "min": [
        1,
        0,
        0,
        0,
        0,
        1,
        0,
        0,
        0,
        0,
        1,
        0,
        0,
        0,
        0,
        1
      ],
      "type": "MAT4"
    }
  ],
  "asset": {
    "extras": {
      "author": "3D Share (https://sketchfab.com/3dsharesg)",
      "license": "CC-BY-4.0 (http://creativecommons.org/licenses/by/4.0/)",
      "source": "https://sketchfab.com/models/070bbd21e9314beaa108217dfe393f7b",
      "title": "Girl"
    },
    "generator": "Sketchfab-3.18.6",
    "version": "2.0"
  },
  "bufferViews": [
    {
      "buffer": 0,
      "byteLength": 37620,
      "byteOffset": 0,
      "name": "floatBufferViews",
      "target": 34963
    },
    {
      "buffer": 0,
      "byteLength": 115200,
      "byteOffset": 37620,
      "byteStride": 8,
      "name": "floatBufferViews",
      "target": 34962
    },
    {
      "buffer": 0,
      "byteLength": 172800,
      "byteOffset": 152820,
      "byteStride": 12,
      "name": "floatBufferViews",
      "target": 34962
    },
    {
      "buffer": 0,
      "byteLength": 230400,
      "byteOffset": 325620,
      "byteStride": 16,
      "name": "floatBufferViews",
      "target": 34962
    },
    {
      "buffer": 0,
      "byteLength": 64,
      "byteOffset": 556020,
      "byteStride": 64,
      "name": "floatBufferViews"
    }
  ],
  "buffers": [
    {
      "byteLength": 556084,
      "uri": "scene.bin"
    }
  ],
  "images": [
    {
      "uri": "textures/Girl_baseColor.png"
    },
    {
      "uri": "textures/Girl_normal.png"
    }
  ],
  "materials": [
    {
      "doubleSided": true,
      "emissiveFactor": [
        0,
        0,
        0
      ],
      "name": "Girl",
      "normalTexture": {
        "index": 1,
        "scale": 1,
        "texCoord": 1
      },
      "pbrMetallicRoughness": {
        "baseColorFactor": [
          1,
          1,
          1,
          1
        ],
        "baseColorTexture": {
          "index": 0,
          "texCoord": 0
        },
        "metallicFactor": 0,
        "roughnessFactor": 0.59999999999999998
      }
    }
  ],
  "meshes": [
    {
      "primitives": [
        {
          "attributes": {
            "COLOR_0": 3,
            "NORMAL": 1,
            "POSITION": 0,
            "TANGENT": 2,
            "TEXCOORD_0": 4,
            "TEXCOORD_1": 5
          },
          "indices": 6,
          "material": 0,
          "mode": 4
        }
      ]
    }
  ],
  "nodes": [
    {
      "children": [
        1
      ],
      "name": "RootNode (gltf orientation matrix)",
      "rotation": [
        -0.70710678118654746,
        -0,
        -0,
        0.70710678118654757
      ]
    },
    {
      "children": [
        2
      ],
      "name": "RootNode (model correction matrix)"
    },
    {
      "children": [
        3
      ],
      "matrix": [
        1,
        0,
        0,
        0,
        0,
        0,
        1,
        0,
        0,
        -1,
        0,
        0,
        0,
        0,
        0,
        1
      ],
      "name": "Girl.FBX"
    },
    {
      "children": [
        4
      ],
      "name": "RootNode"
    },
    {
      "children": [
        5,
        6
      ],
      "name": ""
    },
    {
      "name": "_rootJoint"
    },
    {
      "children": [
        7
      ],
      "matrix": [
        0.39370077848434454,
        -2.9307339974998792e-19,
        8.6736173798840355e-19,
        0,
        8.6736173798840326e-19,
        2.4107219909633678e-17,
        -0.39370077848434443,
        0,
        2.9307339974998787e-19,
        0.39370077848434448,
        2.4107219909633682e-17,
        0,
        0,
        3.5527136788005009e-15,
        6.9388939039072284e-18,
        1
      ],
      "name": ""
    },
    {
      "mesh": 0,
      "name": ""
    }
  ],
  "samplers": [
    {
      "magFilter": 9729,
      "minFilter": 9987,
      "wrapS": 10497,
      "wrapT": 10497
    }
  ],
  "scene": 0,
  "scenes": [
    {
      "name": "OSG_Scene",
      "nodes": [
        0
      ]
    }
  ],
  "skins": [
    {
      "inverseBindMatrices": 7,
      "joints": [
        5
      ],
      "skeleton": 5
    }
  ],
  "textures": [
    {
      "sampler": 0,
      "source": 0
    },
    {
      "sampler": 0,
      "source": 1
    }
  ]
}

